<mxfile host="app.diagrams.net" modified="2023-04-03T05:02:19.566Z" agent="Mozilla/5.0 (Windows NT 10.0; Win64; x64) AppleWebKit/537.36 (KHTML, like Gecko) Chrome/110.0.0.0 Whale/3.19.166.16 Safari/537.36" etag="niZ082n7lGCtdB8jA2f8" version="21.1.1" type="github">
  <diagram name="페이지-1" id="qBkM3A7DLI9kw4skXUs0">
    <mxGraphModel dx="2557" dy="765" grid="0" gridSize="10" guides="1" tooltips="1" connect="1" arrows="1" fold="1" page="1" pageScale="1" pageWidth="1169" pageHeight="827" background="none" math="0" shadow="0">
      <root>
        <mxCell id="0" />
        <mxCell id="1" parent="0" />
        <mxCell id="UMaOldq2MIBpZKO2mwzk-30" value="Root" style="rounded=1;whiteSpace=wrap;html=1;" vertex="1" parent="1">
          <mxGeometry x="-598" y="10" width="50" height="30" as="geometry" />
        </mxCell>
        <mxCell id="UMaOldq2MIBpZKO2mwzk-31" value="Fallback" style="rounded=1;whiteSpace=wrap;html=1;" vertex="1" parent="1">
          <mxGeometry x="-608" y="80" width="70" height="30" as="geometry" />
        </mxCell>
        <mxCell id="UMaOldq2MIBpZKO2mwzk-32" value="ReactiveSequence" style="rounded=1;whiteSpace=wrap;html=1;" vertex="1" parent="1">
          <mxGeometry x="-1080" y="160" width="120" height="30" as="geometry" />
        </mxCell>
        <mxCell id="UMaOldq2MIBpZKO2mwzk-35" value="ReactiveSequence" style="rounded=1;whiteSpace=wrap;html=1;" vertex="1" parent="1">
          <mxGeometry x="-904" y="160" width="120" height="30" as="geometry" />
        </mxCell>
        <mxCell id="UMaOldq2MIBpZKO2mwzk-36" value="ReactiveSequence" style="rounded=1;whiteSpace=wrap;html=1;" vertex="1" parent="1">
          <mxGeometry x="-728" y="160" width="120" height="30" as="geometry" />
        </mxCell>
        <mxCell id="UMaOldq2MIBpZKO2mwzk-37" value="ReactiveSequence" style="rounded=1;whiteSpace=wrap;html=1;" vertex="1" parent="1">
          <mxGeometry x="-552" y="160" width="120" height="30" as="geometry" />
        </mxCell>
        <mxCell id="UMaOldq2MIBpZKO2mwzk-38" value="ReactiveSequence" style="rounded=1;whiteSpace=wrap;html=1;" vertex="1" parent="1">
          <mxGeometry x="-376" y="160" width="120" height="30" as="geometry" />
        </mxCell>
        <mxCell id="UMaOldq2MIBpZKO2mwzk-39" value="A: LaneFollowing" style="rounded=1;whiteSpace=wrap;html=1;" vertex="1" parent="1">
          <mxGeometry x="-200" y="160" width="120" height="30" as="geometry" />
        </mxCell>
        <mxCell id="UMaOldq2MIBpZKO2mwzk-41" value="" style="endArrow=none;html=1;rounded=0;entryX=0.5;entryY=1;entryDx=0;entryDy=0;exitX=0.5;exitY=0;exitDx=0;exitDy=0;" edge="1" parent="1" source="UMaOldq2MIBpZKO2mwzk-35" target="UMaOldq2MIBpZKO2mwzk-31">
          <mxGeometry width="50" height="50" relative="1" as="geometry">
            <mxPoint x="-690" y="110" as="sourcePoint" />
            <mxPoint x="-640" y="60" as="targetPoint" />
          </mxGeometry>
        </mxCell>
        <mxCell id="UMaOldq2MIBpZKO2mwzk-42" value="" style="endArrow=none;html=1;rounded=0;entryX=0.5;entryY=1;entryDx=0;entryDy=0;exitX=0.5;exitY=0;exitDx=0;exitDy=0;" edge="1" parent="1" source="UMaOldq2MIBpZKO2mwzk-32" target="UMaOldq2MIBpZKO2mwzk-31">
          <mxGeometry width="50" height="50" relative="1" as="geometry">
            <mxPoint x="-690" y="110" as="sourcePoint" />
            <mxPoint x="-640" y="60" as="targetPoint" />
          </mxGeometry>
        </mxCell>
        <mxCell id="UMaOldq2MIBpZKO2mwzk-43" value="" style="endArrow=none;html=1;rounded=0;entryX=0.5;entryY=1;entryDx=0;entryDy=0;exitX=0.5;exitY=0;exitDx=0;exitDy=0;" edge="1" parent="1" source="UMaOldq2MIBpZKO2mwzk-31" target="UMaOldq2MIBpZKO2mwzk-30">
          <mxGeometry width="50" height="50" relative="1" as="geometry">
            <mxPoint x="-638" y="100" as="sourcePoint" />
            <mxPoint x="-588" y="50" as="targetPoint" />
          </mxGeometry>
        </mxCell>
        <mxCell id="UMaOldq2MIBpZKO2mwzk-44" value="" style="endArrow=none;html=1;rounded=0;exitX=0.5;exitY=0;exitDx=0;exitDy=0;entryX=0.462;entryY=1;entryDx=0;entryDy=0;entryPerimeter=0;" edge="1" parent="1" source="UMaOldq2MIBpZKO2mwzk-36" target="UMaOldq2MIBpZKO2mwzk-31">
          <mxGeometry width="50" height="50" relative="1" as="geometry">
            <mxPoint x="-670" y="170" as="sourcePoint" />
            <mxPoint x="-620" y="120" as="targetPoint" />
          </mxGeometry>
        </mxCell>
        <mxCell id="UMaOldq2MIBpZKO2mwzk-45" value="" style="endArrow=none;html=1;rounded=0;entryX=0.523;entryY=0.013;entryDx=0;entryDy=0;entryPerimeter=0;exitX=0.5;exitY=1;exitDx=0;exitDy=0;" edge="1" parent="1" source="UMaOldq2MIBpZKO2mwzk-31" target="UMaOldq2MIBpZKO2mwzk-37">
          <mxGeometry width="50" height="50" relative="1" as="geometry">
            <mxPoint x="-630" y="120" as="sourcePoint" />
            <mxPoint x="-580" y="80" as="targetPoint" />
          </mxGeometry>
        </mxCell>
        <mxCell id="UMaOldq2MIBpZKO2mwzk-46" value="" style="endArrow=none;html=1;rounded=0;entryX=0.5;entryY=0;entryDx=0;entryDy=0;exitX=0.5;exitY=1;exitDx=0;exitDy=0;" edge="1" parent="1" source="UMaOldq2MIBpZKO2mwzk-31" target="UMaOldq2MIBpZKO2mwzk-38">
          <mxGeometry width="50" height="50" relative="1" as="geometry">
            <mxPoint x="-630" y="130" as="sourcePoint" />
            <mxPoint x="-580" y="80" as="targetPoint" />
          </mxGeometry>
        </mxCell>
        <mxCell id="UMaOldq2MIBpZKO2mwzk-47" value="" style="endArrow=none;html=1;rounded=0;entryX=0.5;entryY=0;entryDx=0;entryDy=0;exitX=0.5;exitY=1;exitDx=0;exitDy=0;" edge="1" parent="1" source="UMaOldq2MIBpZKO2mwzk-31" target="UMaOldq2MIBpZKO2mwzk-39">
          <mxGeometry width="50" height="50" relative="1" as="geometry">
            <mxPoint x="-630" y="120" as="sourcePoint" />
            <mxPoint x="-460" y="130" as="targetPoint" />
          </mxGeometry>
        </mxCell>
        <mxCell id="UMaOldq2MIBpZKO2mwzk-48" value="" style="endArrow=none;html=1;rounded=0;entryX=0.5;entryY=0;entryDx=0;entryDy=0;exitX=0.5;exitY=1;exitDx=0;exitDy=0;" edge="1" parent="1" source="UMaOldq2MIBpZKO2mwzk-32" target="UMaOldq2MIBpZKO2mwzk-49">
          <mxGeometry width="50" height="50" relative="1" as="geometry">
            <mxPoint x="-680" y="230" as="sourcePoint" />
            <mxPoint x="-630" y="180" as="targetPoint" />
          </mxGeometry>
        </mxCell>
        <mxCell id="UMaOldq2MIBpZKO2mwzk-49" value="C : PullOver_Request" style="rounded=1;whiteSpace=wrap;html=1;" vertex="1" parent="1">
          <mxGeometry x="-1125" y="230" width="130" height="30" as="geometry" />
        </mxCell>
        <mxCell id="UMaOldq2MIBpZKO2mwzk-51" value="A : PullOver_Plan" style="rounded=1;whiteSpace=wrap;html=1;" vertex="1" parent="1">
          <mxGeometry x="-1045" y="270" width="130" height="30" as="geometry" />
        </mxCell>
        <mxCell id="UMaOldq2MIBpZKO2mwzk-52" value="" style="endArrow=none;html=1;rounded=0;entryX=0.5;entryY=0;entryDx=0;entryDy=0;exitX=0.5;exitY=1;exitDx=0;exitDy=0;" edge="1" parent="1" source="UMaOldq2MIBpZKO2mwzk-32" target="UMaOldq2MIBpZKO2mwzk-51">
          <mxGeometry width="50" height="50" relative="1" as="geometry">
            <mxPoint x="-960" y="190" as="sourcePoint" />
            <mxPoint x="-1085" y="320" as="targetPoint" />
          </mxGeometry>
        </mxCell>
        <mxCell id="UMaOldq2MIBpZKO2mwzk-55" value="C : PullOut_Request" style="rounded=1;whiteSpace=wrap;html=1;" vertex="1" parent="1">
          <mxGeometry x="-949" y="230" width="130" height="30" as="geometry" />
        </mxCell>
        <mxCell id="UMaOldq2MIBpZKO2mwzk-56" value="A : PullOut_Plan" style="rounded=1;whiteSpace=wrap;html=1;" vertex="1" parent="1">
          <mxGeometry x="-869" y="270" width="130" height="30" as="geometry" />
        </mxCell>
        <mxCell id="UMaOldq2MIBpZKO2mwzk-57" value="C : SideShift_Request" style="rounded=1;whiteSpace=wrap;html=1;" vertex="1" parent="1">
          <mxGeometry x="-773" y="230" width="130" height="30" as="geometry" />
        </mxCell>
        <mxCell id="UMaOldq2MIBpZKO2mwzk-58" value="A : SideShift_Plan" style="rounded=1;whiteSpace=wrap;html=1;" vertex="1" parent="1">
          <mxGeometry x="-693" y="270" width="130" height="30" as="geometry" />
        </mxCell>
        <mxCell id="UMaOldq2MIBpZKO2mwzk-59" value="" style="endArrow=none;html=1;rounded=0;entryX=0.5;entryY=0;entryDx=0;entryDy=0;exitX=0.5;exitY=1;exitDx=0;exitDy=0;" edge="1" parent="1" source="UMaOldq2MIBpZKO2mwzk-35" target="UMaOldq2MIBpZKO2mwzk-55">
          <mxGeometry width="50" height="50" relative="1" as="geometry">
            <mxPoint x="-839" y="200" as="sourcePoint" />
            <mxPoint x="-904" y="240" as="targetPoint" />
          </mxGeometry>
        </mxCell>
        <mxCell id="UMaOldq2MIBpZKO2mwzk-60" value="" style="endArrow=none;html=1;rounded=0;entryX=0.5;entryY=0;entryDx=0;entryDy=0;" edge="1" parent="1" source="UMaOldq2MIBpZKO2mwzk-35" target="UMaOldq2MIBpZKO2mwzk-56">
          <mxGeometry width="50" height="50" relative="1" as="geometry">
            <mxPoint x="-840" y="190" as="sourcePoint" />
            <mxPoint x="-825" y="270" as="targetPoint" />
          </mxGeometry>
        </mxCell>
        <mxCell id="UMaOldq2MIBpZKO2mwzk-61" value="" style="endArrow=none;html=1;rounded=0;exitX=0.5;exitY=1;exitDx=0;exitDy=0;" edge="1" parent="1" source="UMaOldq2MIBpZKO2mwzk-36" target="UMaOldq2MIBpZKO2mwzk-57">
          <mxGeometry width="50" height="50" relative="1" as="geometry">
            <mxPoint x="-834" y="200" as="sourcePoint" />
            <mxPoint x="-874" y="240" as="targetPoint" />
          </mxGeometry>
        </mxCell>
        <mxCell id="UMaOldq2MIBpZKO2mwzk-62" value="" style="endArrow=none;html=1;rounded=0;exitX=0.5;exitY=1;exitDx=0;exitDy=0;entryX=0.5;entryY=0;entryDx=0;entryDy=0;" edge="1" parent="1" source="UMaOldq2MIBpZKO2mwzk-36" target="UMaOldq2MIBpZKO2mwzk-58">
          <mxGeometry width="50" height="50" relative="1" as="geometry">
            <mxPoint x="-658" y="200" as="sourcePoint" />
            <mxPoint x="-687" y="240" as="targetPoint" />
          </mxGeometry>
        </mxCell>
        <mxCell id="UMaOldq2MIBpZKO2mwzk-63" value="C : LaneChange_Request" style="rounded=1;whiteSpace=wrap;html=1;" vertex="1" parent="1">
          <mxGeometry x="-597" y="230" width="130" height="30" as="geometry" />
        </mxCell>
        <mxCell id="UMaOldq2MIBpZKO2mwzk-64" value="A : LaneChange_Plan" style="rounded=1;whiteSpace=wrap;html=1;" vertex="1" parent="1">
          <mxGeometry x="-517" y="270" width="130" height="30" as="geometry" />
        </mxCell>
        <mxCell id="UMaOldq2MIBpZKO2mwzk-65" value="" style="endArrow=none;html=1;rounded=0;exitX=0.5;exitY=1;exitDx=0;exitDy=0;entryX=0.5;entryY=0;entryDx=0;entryDy=0;" edge="1" parent="1" source="UMaOldq2MIBpZKO2mwzk-37" target="UMaOldq2MIBpZKO2mwzk-63">
          <mxGeometry width="50" height="50" relative="1" as="geometry">
            <mxPoint x="-658" y="200" as="sourcePoint" />
            <mxPoint x="-687" y="240" as="targetPoint" />
          </mxGeometry>
        </mxCell>
        <mxCell id="UMaOldq2MIBpZKO2mwzk-66" value="" style="endArrow=none;html=1;rounded=0;exitX=0.5;exitY=1;exitDx=0;exitDy=0;entryX=0.5;entryY=0;entryDx=0;entryDy=0;" edge="1" parent="1" source="UMaOldq2MIBpZKO2mwzk-37" target="UMaOldq2MIBpZKO2mwzk-64">
          <mxGeometry width="50" height="50" relative="1" as="geometry">
            <mxPoint x="-482" y="200" as="sourcePoint" />
            <mxPoint x="-522" y="240" as="targetPoint" />
          </mxGeometry>
        </mxCell>
        <mxCell id="UMaOldq2MIBpZKO2mwzk-67" value="C : Avoidance_Request" style="rounded=1;whiteSpace=wrap;html=1;" vertex="1" parent="1">
          <mxGeometry x="-421" y="230" width="130" height="30" as="geometry" />
        </mxCell>
        <mxCell id="UMaOldq2MIBpZKO2mwzk-68" value="A : Avoidance_Plan" style="rounded=1;whiteSpace=wrap;html=1;" vertex="1" parent="1">
          <mxGeometry x="-341" y="270" width="130" height="30" as="geometry" />
        </mxCell>
        <mxCell id="UMaOldq2MIBpZKO2mwzk-69" value="" style="endArrow=none;html=1;rounded=0;exitX=0.5;exitY=1;exitDx=0;exitDy=0;entryX=0.5;entryY=0;entryDx=0;entryDy=0;" edge="1" parent="1" source="UMaOldq2MIBpZKO2mwzk-38" target="UMaOldq2MIBpZKO2mwzk-67">
          <mxGeometry width="50" height="50" relative="1" as="geometry">
            <mxPoint x="-482" y="200" as="sourcePoint" />
            <mxPoint x="-522" y="240" as="targetPoint" />
          </mxGeometry>
        </mxCell>
        <mxCell id="UMaOldq2MIBpZKO2mwzk-70" value="" style="endArrow=none;html=1;rounded=0;exitX=0.5;exitY=1;exitDx=0;exitDy=0;entryX=0.5;entryY=0;entryDx=0;entryDy=0;" edge="1" parent="1" source="UMaOldq2MIBpZKO2mwzk-38" target="UMaOldq2MIBpZKO2mwzk-68">
          <mxGeometry width="50" height="50" relative="1" as="geometry">
            <mxPoint x="-306" y="200" as="sourcePoint" />
            <mxPoint x="-355" y="240" as="targetPoint" />
          </mxGeometry>
        </mxCell>
      </root>
    </mxGraphModel>
  </diagram>
</mxfile>
